<svg width="154.598511" height="89.050781" viewBox="0 0 154.599 89.0508" fill="none" xmlns="http://www.w3.org/2000/svg" xmlns:xlink="http://www.w3.org/1999/xlink">
	<desc>
			Created with Pixso.
	</desc>
	<defs/>
	<path id="Форма 6" d="M74.91 89.05C73.52 89.05 72.15 88.7 70.82 88C69.49 87.3 68.53 86.16 67.96 84.58C67.9 84.39 67.96 84.25 68.14 84.14C68.33 84.05 68.49 84.16 68.61 84.49C69.25 85.7 70.05 86.58 71.03 87.14C72.02 87.71 73.06 88 74.15 88C74.39 88 74.66 87.98 74.94 87.95C75.23 87.92 75.51 87.87 75.77 87.81C77.93 87.3 79.63 86.03 80.87 84C82.11 81.97 82.99 79.59 83.52 76.86C84.06 74.13 84.39 71.39 84.52 68.63C84.66 65.87 84.69 63.5 84.61 61.53C82.84 62.54 81.02 63.43 79.15 64.21C77.27 64.97 75.32 65.59 73.28 66.09C72.34 66.35 71.25 66.56 70.01 66.72C68.77 66.87 67.45 66.95 66.05 66.95C63.57 66.95 61.14 66.49 58.75 65.58C56.38 64.65 54.74 62.88 53.84 60.28C53.59 59.66 53.44 59.01 53.38 58.35C53.31 57.66 53.28 57.01 53.28 56.39C53.28 54.55 53.56 52.75 54.1 51C54.64 49.25 55.22 47.67 55.84 46.28C54.38 45.39 53.1 44.31 51.98 43.04C50.88 41.77 50.04 40.31 49.47 38.67C49.22 37.91 49.03 37.15 48.89 36.39C48.76 35.62 48.7 34.88 48.7 34.18C48.7 31.33 49.49 28.72 51.07 26.34C52.67 23.96 54.64 21.94 56.98 20.3C59.34 18.64 61.66 17.55 63.96 17.04C64.21 16.98 64.79 16.89 65.7 16.76C66.63 16.62 67.51 16.55 68.33 16.55C69.35 16.55 69.9 16.69 69.96 16.95C70.08 17.2 69.98 17.32 69.66 17.32C68.77 17.32 67.92 17.32 67.1 17.32C66.28 17.32 65.42 17.41 64.52 17.6C62.36 18.11 60.25 19.12 58.19 20.62C56.13 22.11 54.42 23.93 53.05 26.09C51.69 28.24 51 30.62 51 33.23C51 33.93 51.07 34.64 51.19 35.37C51.31 36.1 51.5 36.85 51.75 37.62C52.71 40.29 54.43 42.48 56.91 44.18C59 40.18 61.32 36.68 63.84 33.67C66.39 30.65 69.05 27.76 71.84 25C74.65 22.24 77.48 19.3 80.33 16.18C80.33 15.61 80.32 15 80.29 14.37C80.25 13.73 80.24 13.1 80.24 12.46C80.24 10.94 80.32 9.41 80.47 7.86C80.64 6.29 80.98 4.94 81.47 3.81C81.86 2.97 82.36 2.13 82.96 1.27C83.56 0.42 84.34 0 85.29 0C85.92 0 86.46 0.2 86.89 0.62C87.34 1.03 87.7 1.54 87.96 2.18C88.21 2.75 88.33 3.45 88.33 4.27C88.33 5.67 87.97 7.06 87.24 8.46C86.51 9.86 85.67 11.14 84.7 12.32C83.76 13.5 82.91 14.53 82.15 15.41C82.15 18.02 82.35 20.67 82.75 23.37C83.17 26.07 83.57 28.72 83.96 31.32C85.42 29.49 87.15 27.77 89.15 26.16C91.15 24.53 93.32 23.43 95.68 22.86C96.44 22.66 97.26 22.55 98.15 22.55C99.42 22.55 100.64 22.86 101.82 23.46C103 24.07 103.87 25.2 104.43 26.86C104.81 28 105.01 29.28 105.01 30.67C105.01 32.31 104.78 34.01 104.33 35.76C103.9 37.5 103.46 39 103.01 40.28C101.55 44.21 99.55 47.76 97.01 50.9C94.46 54.05 91.51 56.73 88.15 58.95C88.21 59.97 88.27 61.03 88.33 62.11C88.39 63.18 88.43 64.26 88.43 65.35C88.43 68.65 88.12 71.97 87.52 75.3C86.91 78.63 85.82 81.52 84.24 83.95C82.66 86.4 80.31 88.01 77.19 88.77C76.56 88.95 75.8 89.05 74.91 89.05ZM82.15 14.09C82.6 13.58 83.18 12.7 83.91 11.46C84.64 10.22 85.29 8.9 85.87 7.51C86.44 6.11 86.73 4.97 86.73 4.09C86.73 3.7 86.69 3.44 86.61 3.32C86.55 3.13 86.46 2.95 86.33 2.76C86.21 2.56 86.02 2.46 85.77 2.46C85.39 2.46 84.98 2.73 84.56 3.27C84.16 3.82 83.9 4.27 83.77 4.65C83.2 5.86 82.8 7.4 82.56 9.27C82.35 11.15 82.21 12.75 82.15 14.09ZM63.38 46.28C65.47 46.28 67.49 45.79 69.42 44.81C71.36 43.82 73.15 42.59 74.8 41.14C76.46 39.68 77.91 38.27 79.15 36.9C80.39 35.54 81.32 34.48 81.96 33.72C81.63 30.99 81.32 28.28 81.03 25.58C80.75 22.86 80.52 20.14 80.33 17.41C78.81 19.07 77.25 20.7 75.66 22.3C74.08 23.88 72.56 25.52 71.1 27.23C69.44 29.14 67.9 31.15 66.47 33.28C65.04 35.4 63.73 37.61 62.52 39.9C62.01 40.79 61.52 41.71 61.07 42.67C60.64 43.62 60.2 44.6 59.75 45.62C60.9 46.06 62.11 46.28 63.38 46.28ZM87.87 57.53C90.84 55.63 93.46 53.38 95.7 50.81C97.97 48.24 99.74 45.21 101.01 41.72C101.58 40.12 101.99 38.67 102.24 37.37C102.5 36.07 102.64 34.88 102.64 33.81C102.64 31.27 102.03 29.36 100.82 28.09C99.61 26.82 98.05 26.18 96.15 26.18C94.43 26.18 92.52 26.71 90.43 27.76C88.33 28.8 86.24 30.37 84.15 32.46C84.78 36.66 85.49 40.86 86.29 45.04C87.08 49.23 87.6 53.39 87.87 57.53ZM69.56 64.18C70.65 64.18 71.71 64.11 72.75 63.95C73.8 63.8 74.74 63.63 75.56 63.44C78.74 62.66 81.7 61.52 84.42 60C84.36 55.81 84.09 51.61 83.61 47.39C83.15 43.16 82.66 38.92 82.15 34.67C81.45 35.87 80.46 37.25 79.19 38.81C77.92 40.36 76.42 41.85 74.7 43.28C73 44.7 71.15 45.9 69.15 46.86C67.14 47.8 65.07 48.28 62.91 48.28C61.64 48.28 60.37 48.09 59.1 47.72C58.83 48.6 58.59 49.59 58.38 50.67C58.16 51.74 58.05 52.82 58.05 53.9C58.05 55.24 58.24 56.57 58.61 57.9C59.51 60.32 61.02 61.97 63.14 62.86C65.27 63.74 67.41 64.18 69.56 64.18Z" fill="#FFA55C" fill-opacity="1.000000" fill-rule="nonzero"/>
	<path id="Форма 6" d="M6.8 59.47C5.98 59.47 5.26 59 4.65 58.05C4.04 57.1 3.6 55.58 3.35 53.47C3.32 53.3 3.3 53.1 3.3 52.87C3.3 52.63 3.3 52.38 3.3 52.12C3.3 51.07 3.36 49.73 3.49 48.11C3.62 46.5 3.78 44.71 3.97 42.77C4.16 40.82 4.35 38.81 4.52 36.75C4.7 34.67 4.85 32.65 4.98 30.66C5.11 28.68 5.17 26.87 5.17 25.25C5.17 23.23 5.05 21.59 4.79 20.35C4.53 19.1 4.07 18.48 3.39 18.48C2.98 18.48 2.57 18.71 2.17 19.18C1.78 19.64 1.42 20.15 1.12 20.71C0.82 21.27 0.57 21.71 0.39 22.05C0.22 22.39 0.12 22.44 0.09 22.21C0.06 22.09 0.03 21.97 0.02 21.86C0 21.75 0 21.62 0 21.5C0 20.89 0.14 20.25 0.42 19.58C0.71 18.91 1.1 18.34 1.61 17.88C2.13 17.41 2.71 17.17 3.35 17.17C3.48 17.17 3.59 17.18 3.69 17.2C3.78 17.21 3.88 17.24 3.98 17.28C5.22 17.6 6.07 18.62 6.51 20.35C6.96 22.08 7.19 24.17 7.19 26.63C7.19 28.49 7.1 30.46 6.92 32.54C6.75 34.62 6.56 36.71 6.35 38.81C6.14 40.9 5.95 42.89 5.77 44.78C5.6 46.67 5.51 48.33 5.51 49.78C5.51 50.19 5.52 50.58 5.54 50.95C5.55 51.32 5.58 51.66 5.61 51.98C5.87 54 6.22 55.41 6.66 56.22C7.11 57.04 7.62 57.45 8.2 57.45C8.84 57.45 9.5 57.1 10.19 56.4C10.88 55.69 11.56 54.82 12.23 53.76C12.9 52.7 13.51 51.64 14.06 50.58C14.79 49.21 15.46 47.6 16.07 45.75C16.68 43.89 17.23 42 17.73 40.07C18.23 38.15 18.62 36.39 18.9 34.8C18.58 34.25 18.39 33.69 18.32 33.12C18.26 32.55 18.23 31.81 18.23 30.91C18.23 29.95 18.41 29.2 18.76 28.66C19.11 28.11 19.48 27.84 19.86 27.84C20.44 27.84 20.82 28.32 21.02 29.28C21.37 30.87 21.72 32.56 22.07 34.34C22.42 36.12 22.82 37.85 23.25 39.55C23.67 41.24 24.18 42.81 24.76 44.26C25.94 47.1 27.03 49.14 28.03 50.37C29.02 51.6 29.93 52.21 30.76 52.21C31.62 52.21 32.39 51.66 33.04 50.56C33.7 49.46 34.25 48.01 34.69 46.2C35.14 44.39 35.48 42.42 35.7 40.3C35.93 38.16 36.04 36.07 36.04 34.03C36.04 32.33 35.97 30.75 35.82 29.28C35.68 27.8 35.43 26.6 35.08 25.67C34.95 25.29 34.85 24.89 34.79 24.48C34.73 24.06 34.69 23.68 34.69 23.33C34.69 22.87 34.75 22.49 34.86 22.17C34.98 21.85 35.14 21.69 35.36 21.69C35.62 21.69 35.88 21.88 36.14 22.27C36.49 22.72 36.82 23.33 37.12 24.12C37.42 24.91 37.69 25.58 37.91 26.15C38.16 26.79 38.5 27.57 38.91 28.48C39.33 29.4 39.78 30.23 40.24 30.98C40.7 31.73 41.16 32.19 41.61 32.35C41.67 32.38 41.7 32.44 41.7 32.54C41.7 32.73 41.56 32.89 41.27 33.02C40.98 33.14 40.77 33.19 40.65 33.16C39.91 32.81 39.3 32.43 38.8 32.03C38.3 31.64 37.74 30.89 37.1 29.81C37.13 30.38 37.14 30.96 37.14 31.55C37.14 32.15 37.14 32.73 37.14 33.31C37.14 34.98 37.08 36.64 36.97 38.3C36.86 39.97 36.64 41.65 36.32 43.34C35.62 47.02 34.73 49.65 33.66 51.22C32.59 52.78 31.46 53.56 30.28 53.56C29.32 53.56 28.36 53.14 27.42 52.3C26.48 51.44 25.61 50.32 24.8 48.91C24.01 47.5 23.32 45.93 22.74 44.2C22.23 42.53 21.8 41.01 21.44 39.62C21.09 38.23 20.82 37 20.63 35.95C20.12 38.25 19.45 40.54 18.63 42.82C17.82 45.08 16.91 47.21 15.92 49.21C14.93 51.21 13.9 52.98 12.83 54.52C11.76 56.06 10.7 57.27 9.66 58.14C8.62 59.03 7.67 59.47 6.8 59.47Z" fill="#1F1711" fill-opacity="1.000000" fill-rule="nonzero"/>
	<path id="Форма 6" d="M41.27 53.61C40.69 53.61 40.28 53.36 40.02 52.87C39.77 52.37 39.64 51.78 39.64 51.11C39.64 50.25 39.79 49.25 40.09 48.1C40.39 46.94 40.8 45.75 41.31 44.51C41.82 43.28 42.41 42.14 43.06 41.1C43.72 40.07 44.42 39.22 45.15 38.56C45.89 37.91 46.62 37.58 47.32 37.58C47.96 37.58 48.51 37.86 48.97 38.42C49.44 38.98 49.67 39.62 49.67 40.32C49.67 40.73 49.61 41.08 49.47 41.35C49.35 41.62 49.21 41.76 49.04 41.76C48.92 41.76 48.81 41.66 48.71 41.47C48.39 40.73 48.05 40.21 47.68 39.89C47.31 39.57 46.94 39.41 46.55 39.41C45.9 39.41 45.27 39.76 44.65 40.48C44.03 41.2 43.53 42.03 43.15 42.96C42.83 43.66 42.53 44.5 42.26 45.48C41.98 46.45 41.76 47.41 41.58 48.36C41.4 49.3 41.32 50.08 41.32 50.68C41.32 51.77 41.57 52.32 42.08 52.32C42.72 52.32 43.54 51.61 44.53 50.2C45.27 49.17 45.94 47.99 46.52 46.65C47.12 45.3 47.62 44.14 48.03 43.14C48.2 42.82 48.37 42.62 48.56 42.52C48.76 42.43 48.94 42.38 49.1 42.38C49.48 42.38 49.73 42.54 49.84 42.86C49.95 43.18 50 43.45 50 43.67C50 44.51 49.92 45.25 49.76 45.91C49.6 46.57 49.52 47.36 49.52 48.29C49.52 48.96 49.58 49.58 49.69 50.14C49.8 50.69 50.01 50.97 50.3 50.97C50.65 50.97 51.1 50.52 51.64 49.62C51.77 49.37 51.96 49.24 52.22 49.24C52.51 49.24 52.65 49.38 52.65 49.67C52.65 50.09 52.36 50.53 51.78 51C51.21 51.46 50.63 51.69 50.05 51.69C49.28 51.69 48.74 51.37 48.42 50.73C47.88 49.67 47.61 48.72 47.61 47.88C47.61 47.03 47.59 46.44 47.55 46.12C47.4 46.5 47.09 47.1 46.64 47.92C46.19 48.74 45.67 49.58 45.06 50.47C44.46 51.35 43.82 52.1 43.15 52.71C42.47 53.31 41.85 53.61 41.27 53.61Z" fill="#1F1711" fill-opacity="1.000000" fill-rule="nonzero"/>
	<path id="Форма 6" d="M50.01 60.96C49.68 60.96 49.42 60.86 49.22 60.66C49.01 60.48 48.98 60.25 49.14 60C49.59 59.32 50.02 58.37 50.42 57.14C50.81 55.91 51.17 54.62 51.47 53.28C51.77 51.94 52.03 50.71 52.23 49.61C52.44 48.5 52.6 47.73 52.69 47.28C52.12 46.73 51.83 46.12 51.83 45.45C51.83 44.94 51.95 44.5 52.18 44.15C52.43 43.8 52.61 43.64 52.75 43.67C52.81 43.67 52.9 43.7 53.01 43.75C53.11 43.8 53.17 43.85 53.17 43.92C53.36 42.41 53.52 40.91 53.65 39.43C53.78 37.94 53.85 36.57 53.85 35.33C53.85 34.3 53.8 33.39 53.7 32.6C53.6 31.79 53.46 31.15 53.27 30.66C53.08 30.19 52.98 29.82 52.98 29.56C52.98 29.21 53.08 29.03 53.27 29.03C53.49 29.03 53.67 29.18 53.8 29.47C54.15 30.17 54.42 31.28 54.59 32.78C54.77 34.28 54.86 36 54.86 37.92C54.86 39.23 54.82 40.62 54.75 42.08C54.69 43.53 54.58 44.98 54.42 46.41C55 45.9 55.59 45.39 56.19 44.9C56.8 44.4 57.33 43.88 57.79 43.34L57.79 43.3C57.79 43.23 57.76 43.16 57.7 43.1C57.66 43.03 57.63 42.94 57.63 42.82C57.63 42.59 57.79 42.32 58.11 42C58.43 41.67 58.86 41.22 59.38 40.62C59.91 40.03 60.47 39.49 61.04 39C61.62 38.5 62.15 38.27 62.63 38.3C63.01 38.3 63.2 38.43 63.2 38.68C63.2 38.97 62.93 39.4 62.38 39.98C61.84 40.56 61.2 41.17 60.45 41.81C59.7 42.45 59.01 43.03 58.38 43.57C57.76 44.09 57.35 44.44 57.15 44.63L55.34 46.65L54.38 47.66C54.79 48.71 55.27 49.75 55.81 50.78C56.35 51.81 56.97 52.66 57.66 53.33C58.35 54 59.06 54.33 59.8 54.33C60.57 54.33 61.35 53.87 62.15 52.94C62.69 52.27 63.16 51.52 63.54 50.69C63.92 49.85 64.24 49.23 64.5 48.82C64.67 48.5 64.83 48.28 64.98 48.17C65.15 48.05 65.27 48 65.37 48C65.59 48 65.67 48.16 65.6 48.48C65.48 48.89 65.26 49.42 64.93 50.06C64.61 50.7 64.3 51.3 64 51.86C63.69 52.42 63.46 52.81 63.31 53.03C62.7 53.93 62.09 54.59 61.48 55C60.87 55.42 60.27 55.62 59.7 55.62C58.96 55.62 58.24 55.35 57.54 54.8C56.84 54.26 56.19 53.57 55.6 52.71C55 51.84 54.47 50.92 53.99 49.96C53.64 52.39 53.2 54.58 52.69 56.51C52.18 58.45 51.62 59.79 51.01 60.52C50.72 60.81 50.39 60.96 50.01 60.96Z" fill="#1F1711" fill-opacity="1.000000" fill-rule="nonzero"/>
	<path id="Форма 6" d="M68.92 54.62C67.77 54.62 66.77 53.94 65.92 52.58C65.07 51.22 64.64 49.07 64.64 46.12C64.64 44.2 64.88 42.66 65.36 41.49C65.84 40.32 66.43 39.46 67.14 38.92C67.85 38.38 68.52 38.1 69.16 38.1C69.8 38.1 70.34 38.32 70.78 38.76C71.23 39.19 71.46 39.8 71.46 40.6C71.46 41.37 71.23 42.19 70.78 43.04C70.34 43.88 69.8 44.65 69.18 45.33C68.56 46.02 67.94 46.48 67.34 46.69C67.2 46.76 67.04 46.8 66.86 46.8C66.73 46.8 66.67 46.75 66.67 46.65C66.67 46.4 66.92 46.11 67.43 45.79C68.07 45.34 68.68 44.66 69.25 43.75C69.82 42.84 70.11 42.03 70.11 41.33C70.11 40.91 70.02 40.58 69.82 40.34C69.63 40.1 69.41 39.98 69.16 39.98C68.68 39.98 68.16 40.35 67.59 41.1C67.04 41.85 66.63 43.14 66.37 44.97C66.31 45.48 66.25 45.97 66.2 46.44C66.15 46.9 66.13 47.35 66.13 47.81C66.13 49.6 66.4 51 66.95 52C67.5 53.01 68.21 53.51 69.11 53.51C69.88 53.51 70.74 53.06 71.69 52.16C72.66 51.24 73.6 49.81 74.53 47.85C74.76 47.34 75.02 47.08 75.3 47.08C75.49 47.08 75.59 47.21 75.59 47.47C75.59 47.69 75.52 47.93 75.4 48.18C74.57 50.24 73.56 51.82 72.37 52.94C71.19 54.06 70.03 54.62 68.92 54.62Z" fill="#1F1711" fill-opacity="1.000000" fill-rule="nonzero"/>
	<path id="Форма 6" d="M100.27 72C98.79 72 97.37 71.39 96.01 70.17C94.65 68.96 93.52 67.2 92.6 64.89C91.69 62.59 91.16 59.8 91 56.54C90 56.63 89.09 56.68 88.27 56.68C86.41 56.68 85.05 56.44 84.2 55.95C83.36 55.48 82.93 54.85 82.93 54.09C82.93 53.32 83.3 52.48 84.03 51.55C84.77 50.62 85.79 49.68 87.11 48.75C88.42 47.8 89.96 46.94 91.72 46.17C92.32 42.91 93.3 39.39 94.66 35.6C96.03 31.8 97.87 27.77 100.17 23.51C100.39 23.1 100.73 22.89 101.18 22.89C101.46 22.89 101.71 22.99 101.94 23.19C102.17 23.37 102.28 23.63 102.28 23.95C102.28 24.1 102.23 24.31 102.13 24.57C100.08 28.7 98.38 32.49 97.02 35.92C95.66 39.36 94.6 42.51 93.83 45.36C95.27 44.81 96.8 44.36 98.44 44.01C100.07 43.66 101.73 43.45 103.43 43.39C103.88 43.39 104.1 43.45 104.1 43.58C104.1 43.71 103.95 43.83 103.64 43.94C103.34 44.05 102.84 44.12 102.13 44.15C100.57 44.25 99.07 44.47 97.64 44.81C96.22 45.14 94.88 45.55 93.63 46.03C93.16 47.89 92.79 49.61 92.53 51.19C92.28 52.77 92.12 54.23 92.05 55.58C95.35 54.87 98.35 53.84 101.05 52.48C103.75 51.12 106.14 49.55 108.22 47.76C110.31 45.96 112.05 44.1 113.46 42.18C114.36 40.97 115.01 39.89 115.41 38.95C115.8 38 116 37.18 116 36.48C116 35.45 115.68 34.64 115.04 34.05C114.4 33.46 113.55 33.03 112.5 32.76C111.45 32.49 110.29 32.35 109.04 32.35C107.73 32.35 106.4 32.47 105.06 32.71C103.71 32.95 102.5 33.27 101.41 33.69C101.16 33.76 100.98 33.79 100.89 33.79C100.47 33.79 100.27 33.65 100.27 33.36C100.27 33.07 100.44 32.84 100.79 32.68C104.73 30.44 107.53 28.42 109.2 26.6C110.86 24.77 111.69 23.23 111.69 21.98C111.69 20.89 111.19 20.05 110.18 19.46C109.17 18.87 107.85 18.57 106.22 18.57C104.94 18.57 103.5 18.78 101.89 19.2C100.29 19.62 98.64 20.28 96.95 21.21C95.54 21.98 94.27 22.89 93.13 23.92C92 24.96 91.03 26.04 90.25 27.15C89.46 28.25 88.88 29.29 88.5 30.26C88.12 31.23 87.97 32.05 88.07 32.73C88.07 32.8 88.07 32.87 88.09 32.95C88.11 33.03 88.11 33.1 88.11 33.16C88.11 33.96 87.87 34.37 87.4 34.37C87.17 34.37 86.94 34.21 86.69 33.89C86.46 33.57 86.34 33.08 86.34 32.44C86.34 31.48 86.64 30.46 87.22 29.37C87.82 28.28 88.62 27.18 89.62 26.08C90.63 24.98 91.76 23.94 93.01 22.96C94.26 21.99 95.56 21.15 96.9 20.44C98.63 19.51 100.33 18.83 102.01 18.38C103.69 17.93 105.24 17.7 106.65 17.7C108.6 17.7 110.18 18.09 111.4 18.86C112.62 19.63 113.23 20.7 113.23 22.07C113.23 23.35 112.6 24.84 111.35 26.54C110.1 28.23 108 30.1 105.06 32.15C106.05 32 106.98 31.88 107.84 31.8C108.7 31.71 109.51 31.67 110.25 31.67C113 31.67 114.99 32.13 116.21 33.04C117.45 33.96 118.07 35.13 118.07 36.57C118.07 37.62 117.77 38.77 117.18 40C116.59 41.24 115.77 42.51 114.71 43.82C113.18 45.71 111.25 47.53 108.93 49.3C106.61 51.05 104.01 52.57 101.14 53.85C98.28 55.14 95.24 56 92 56.44C91.94 59.29 92.21 61.64 92.8 63.5C93.39 65.36 94.15 66.81 95.07 67.85C96 68.89 96.93 69.62 97.86 70.05C98.79 70.48 99.56 70.69 100.17 70.69C100.62 70.69 100.92 70.62 101.07 70.46C101.21 70.3 101.4 70.21 101.66 70.21C101.91 70.21 102.15 70.31 102.38 70.51C102.6 70.7 102.71 70.91 102.71 71.13C102.71 71.32 102.6 71.47 102.38 71.56C101.67 71.85 100.97 72 100.27 72ZM88.45 56.06C88.8 56.06 89.19 56.03 89.6 55.99C90.02 55.94 90.47 55.89 90.95 55.82C90.92 54.48 90.95 53.07 91.04 51.6C91.14 50.13 91.32 48.59 91.57 46.99C89.52 48.04 87.91 49.22 86.72 50.51C85.54 51.81 84.95 52.96 84.95 53.95C84.95 54.56 85.24 55.06 85.82 55.46C86.39 55.86 87.27 56.06 88.45 56.06Z" fill="#1F1711" fill-opacity="1.000000" fill-rule="nonzero"/>
	<path id="Форма 6" d="M120.28 53.61C119.7 53.61 119.28 53.36 119.03 52.87C118.78 52.37 118.65 51.78 118.65 51.11C118.65 50.25 118.8 49.25 119.1 48.1C119.4 46.94 119.81 45.75 120.32 44.51C120.83 43.28 121.42 42.14 122.07 41.1C122.73 40.07 123.42 39.22 124.16 38.56C124.9 37.91 125.62 37.58 126.33 37.58C126.97 37.58 127.52 37.86 127.98 38.42C128.45 38.98 128.68 39.62 128.68 40.32C128.68 40.73 128.62 41.08 128.48 41.35C128.36 41.62 128.21 41.76 128.05 41.76C127.92 41.76 127.82 41.66 127.72 41.47C127.4 40.73 127.06 40.21 126.69 39.89C126.32 39.57 125.94 39.41 125.55 39.41C124.91 39.41 124.28 39.76 123.66 40.48C123.04 41.2 122.54 42.03 122.16 42.96C121.83 43.66 121.54 44.5 121.26 45.48C120.99 46.45 120.76 47.41 120.58 48.36C120.41 49.3 120.33 50.08 120.33 50.68C120.33 51.77 120.58 52.32 121.09 52.32C121.73 52.32 122.55 51.61 123.54 50.2C124.28 49.17 124.94 47.99 125.53 46.65C126.12 45.3 126.63 44.14 127.04 43.14C127.21 42.82 127.38 42.62 127.57 42.52C127.76 42.43 127.94 42.38 128.11 42.38C128.49 42.38 128.74 42.54 128.85 42.86C128.96 43.18 129.01 43.45 129.01 43.67C129.01 44.51 128.93 45.25 128.76 45.91C128.61 46.57 128.53 47.36 128.53 48.29C128.53 48.96 128.58 49.58 128.69 50.14C128.81 50.69 129.01 50.97 129.3 50.97C129.66 50.97 130.1 50.52 130.65 49.62C130.78 49.37 130.97 49.24 131.23 49.24C131.51 49.24 131.66 49.38 131.66 49.67C131.66 50.09 131.37 50.53 130.79 51C130.21 51.46 129.64 51.69 129.06 51.69C128.29 51.69 127.75 51.37 127.43 50.73C126.89 49.67 126.62 48.72 126.62 47.88C126.62 47.03 126.6 46.44 126.56 46.12C126.41 46.5 126.1 47.1 125.65 47.92C125.2 48.74 124.67 49.58 124.07 50.47C123.46 51.35 122.83 52.1 122.16 52.71C121.48 53.31 120.86 53.61 120.28 53.61Z" fill="#1F1711" fill-opacity="1.000000" fill-rule="nonzero"/>
	<path id="Форма 6" d="M129.01 60.96C128.69 60.96 128.43 60.86 128.23 60.66C128.02 60.48 127.99 60.25 128.15 60C128.6 59.32 129.03 58.37 129.42 57.14C129.82 55.91 130.17 54.62 130.48 53.28C130.78 51.94 131.04 50.71 131.24 49.61C131.45 48.5 131.6 47.73 131.7 47.28C131.13 46.73 130.84 46.12 130.84 45.45C130.84 44.94 130.96 44.5 131.19 44.15C131.44 43.8 131.62 43.64 131.75 43.67C131.82 43.67 131.9 43.7 132.01 43.75C132.12 43.8 132.18 43.85 132.18 43.92C132.37 42.41 132.53 40.91 132.66 39.43C132.79 37.94 132.86 36.57 132.86 35.33C132.86 34.3 132.81 33.39 132.7 32.6C132.61 31.79 132.47 31.15 132.28 30.66C132.09 30.19 131.99 29.82 131.99 29.56C131.99 29.21 132.09 29.03 132.28 29.03C132.5 29.03 132.68 29.18 132.81 29.47C133.16 30.17 133.42 31.28 133.6 32.78C133.78 34.28 133.87 36 133.87 37.92C133.87 39.23 133.83 40.62 133.76 42.08C133.7 43.53 133.59 44.98 133.43 46.41C134.01 45.9 134.6 45.39 135.2 44.9C135.81 44.4 136.34 43.88 136.79 43.34L136.79 43.3C136.79 43.23 136.77 43.16 136.71 43.1C136.67 43.03 136.64 42.94 136.64 42.82C136.64 42.59 136.8 42.32 137.12 42C137.44 41.67 137.87 41.22 138.39 40.62C138.92 40.03 139.47 39.49 140.05 39C140.63 38.5 141.16 38.27 141.63 38.3C142.02 38.3 142.21 38.43 142.21 38.68C142.21 38.97 141.94 39.4 141.39 39.98C140.85 40.56 140.2 41.17 139.45 41.81C138.7 42.45 138.02 43.03 137.39 43.57C136.77 44.09 136.36 44.44 136.16 44.63L134.35 46.65L133.38 47.66C133.8 48.71 134.28 49.75 134.81 50.78C135.36 51.81 135.98 52.66 136.67 53.33C137.35 54 138.07 54.33 138.81 54.33C139.58 54.33 140.36 53.87 141.15 52.94C141.7 52.27 142.17 51.52 142.55 50.69C142.93 49.85 143.25 49.23 143.51 48.82C143.67 48.5 143.83 48.28 143.99 48.17C144.15 48.05 144.28 48 144.38 48C144.6 48 144.67 48.16 144.61 48.48C144.49 48.89 144.26 49.42 143.94 50.06C143.62 50.7 143.31 51.3 143 51.86C142.7 52.42 142.47 52.81 142.31 53.03C141.7 53.93 141.1 54.59 140.49 55C139.88 55.42 139.28 55.62 138.7 55.62C137.97 55.62 137.25 55.35 136.55 54.8C135.85 54.26 135.2 53.57 134.6 52.71C134.01 51.84 133.47 50.92 133 49.96C132.65 52.39 132.21 54.58 131.7 56.51C131.19 58.45 130.63 59.79 130.02 60.52C129.73 60.81 129.4 60.96 129.01 60.96Z" fill="#1F1711" fill-opacity="1.000000" fill-rule="nonzero"/>
	<path id="Форма 6" d="M147.93 54.62C146.78 54.62 145.78 53.94 144.93 52.58C144.07 51.22 143.65 49.07 143.65 46.12C143.65 44.2 143.89 42.66 144.36 41.49C144.85 40.32 145.44 39.46 146.14 38.92C146.86 38.38 147.53 38.1 148.17 38.1C148.8 38.1 149.34 38.32 149.79 38.76C150.24 39.19 150.47 39.8 150.47 40.6C150.47 41.37 150.24 42.19 149.79 43.04C149.34 43.88 148.81 44.65 148.18 45.33C147.57 46.02 146.95 46.48 146.34 46.69C146.21 46.76 146.05 46.8 145.86 46.8C145.74 46.8 145.68 46.75 145.68 46.65C145.68 46.4 145.93 46.11 146.44 45.79C147.08 45.34 147.68 44.66 148.25 43.75C148.83 42.84 149.12 42.03 149.12 41.33C149.12 40.91 149.02 40.58 148.83 40.34C148.64 40.1 148.42 39.98 148.17 39.98C147.69 39.98 147.16 40.35 146.6 41.1C146.05 41.85 145.64 43.14 145.38 44.97C145.32 45.48 145.26 45.97 145.21 46.44C145.16 46.9 145.14 47.35 145.14 47.81C145.14 49.6 145.41 51 145.96 52C146.5 53.01 147.22 53.51 148.11 53.51C148.89 53.51 149.75 53.06 150.7 52.16C151.66 51.24 152.61 49.81 153.54 47.85C153.77 47.34 154.02 47.08 154.31 47.08C154.5 47.08 154.59 47.21 154.59 47.47C154.59 47.69 154.53 47.93 154.41 48.18C153.58 50.24 152.57 51.82 151.38 52.94C150.2 54.06 149.04 54.62 147.93 54.62Z" fill="#1F1711" fill-opacity="1.000000" fill-rule="nonzero"/>
</svg>
