<svg width="154.598511" height="89.050781" viewBox="0 0 154.599 89.0508" fill="none" xmlns="http://www.w3.org/2000/svg" xmlns:xlink="http://www.w3.org/1999/xlink">
	<desc>
			Created with Pixso.
	</desc>
	<defs/>
	<path id="Форма 7" d="M76.15 89.05C74.75 89.05 73.39 88.7 72.05 88C70.72 87.3 69.77 86.16 69.19 84.58C69.13 84.39 69.19 84.25 69.38 84.14C69.56 84.05 69.72 84.16 69.84 84.49C70.48 85.7 71.28 86.58 72.26 87.14C73.25 87.71 74.29 88 75.38 88C75.63 88 75.89 87.98 76.17 87.95C76.46 87.92 76.74 87.87 77.01 87.81C79.16 87.3 80.86 86.03 82.1 84C83.34 81.97 84.22 79.59 84.75 76.86C85.29 74.13 85.63 71.39 85.75 68.63C85.89 65.87 85.92 63.5 85.84 61.53C84.08 62.54 82.25 63.43 80.38 64.21C78.5 64.97 76.55 65.59 74.52 66.09C73.57 66.35 72.48 66.56 71.24 66.72C70 66.87 68.68 66.95 67.28 66.95C64.8 66.95 62.37 66.49 59.98 65.58C57.61 64.65 55.97 62.88 55.07 60.28C54.83 59.66 54.67 59.01 54.61 58.35C54.55 57.66 54.52 57.01 54.52 56.39C54.52 54.55 54.79 52.75 55.33 51C55.87 49.25 56.45 47.67 57.07 46.28C55.62 45.39 54.33 44.31 53.21 43.04C52.11 41.77 51.28 40.31 50.7 38.67C50.45 37.91 50.26 37.15 50.12 36.39C50 35.62 49.93 34.88 49.93 34.18C49.93 31.33 50.73 28.72 52.31 26.34C53.9 23.96 55.87 21.94 58.21 20.3C60.57 18.64 62.9 17.55 65.19 17.04C65.44 16.98 66.02 16.89 66.94 16.76C67.87 16.62 68.74 16.55 69.56 16.55C70.59 16.55 71.13 16.69 71.19 16.95C71.32 17.2 71.22 17.32 70.89 17.32C70.01 17.32 69.15 17.32 68.33 17.32C67.51 17.32 66.65 17.41 65.75 17.6C63.59 18.11 61.49 19.12 59.42 20.62C57.36 22.11 55.65 23.93 54.28 26.09C52.92 28.24 52.24 30.62 52.24 33.23C52.24 33.93 52.3 34.64 52.42 35.37C52.55 36.1 52.73 36.85 52.98 37.62C53.94 40.29 55.66 42.48 58.14 44.18C60.24 40.18 62.55 36.68 65.08 33.67C67.62 30.65 70.28 27.76 73.08 25C75.88 22.24 78.71 19.3 81.56 16.18C81.56 15.61 81.55 15 81.52 14.37C81.49 13.73 81.47 13.1 81.47 12.46C81.47 10.94 81.55 9.41 81.7 7.86C81.87 6.29 82.21 4.94 82.7 3.81C83.09 2.97 83.59 2.13 84.19 1.27C84.8 0.42 85.57 0 86.52 0C87.15 0 87.69 0.2 88.12 0.62C88.57 1.03 88.93 1.54 89.19 2.18C89.44 2.75 89.56 3.45 89.56 4.27C89.56 5.67 89.2 7.06 88.47 8.46C87.74 9.86 86.9 11.14 85.94 12.32C84.99 13.5 84.14 14.53 83.38 15.41C83.38 18.02 83.58 20.67 83.98 23.37C84.4 26.07 84.8 28.72 85.19 31.32C86.65 29.49 88.38 27.77 90.38 26.16C92.38 24.53 94.56 23.43 96.91 22.86C97.67 22.66 98.5 22.55 99.38 22.55C100.65 22.55 101.88 22.86 103.05 23.46C104.23 24.07 105.1 25.2 105.66 26.86C106.05 28 106.24 29.28 106.24 30.67C106.24 32.31 106.02 34.01 105.57 35.76C105.13 37.5 104.69 39 104.24 40.28C102.78 44.21 100.78 47.76 98.24 50.9C95.7 54.05 92.74 56.73 89.38 58.95C89.44 59.97 89.5 61.03 89.56 62.11C89.63 63.18 89.66 64.26 89.66 65.35C89.66 68.65 89.36 71.97 88.75 75.3C88.15 78.63 87.05 81.52 85.47 83.95C83.89 86.4 81.54 88.01 78.42 88.77C77.79 88.95 77.03 89.05 76.15 89.05ZM83.38 14.09C83.83 13.58 84.42 12.7 85.15 11.46C85.87 10.22 86.53 8.9 87.1 7.51C87.67 6.11 87.96 4.97 87.96 4.09C87.96 3.7 87.92 3.44 87.84 3.32C87.78 3.13 87.69 2.95 87.56 2.76C87.44 2.56 87.25 2.46 87.01 2.46C86.62 2.46 86.22 2.73 85.8 3.27C85.39 3.82 85.13 4.27 85.01 4.65C84.43 5.86 84.03 7.4 83.8 9.27C83.58 11.15 83.44 12.75 83.38 14.09ZM64.61 46.28C66.7 46.28 68.72 45.79 70.66 44.81C72.59 43.82 74.39 42.59 76.03 41.14C77.69 39.68 79.14 38.27 80.38 36.9C81.62 35.54 82.56 34.48 83.19 33.72C82.87 30.99 82.56 28.28 82.26 25.58C81.98 22.86 81.75 20.14 81.56 17.41C80.04 19.07 78.49 20.7 76.89 22.3C75.31 23.88 73.79 25.52 72.33 27.23C70.67 29.14 69.13 31.15 67.7 33.28C66.28 35.4 64.96 37.61 63.75 39.9C63.24 40.79 62.76 41.71 62.31 42.67C61.87 43.62 61.43 44.6 60.98 45.62C62.13 46.06 63.34 46.28 64.61 46.28ZM89.1 57.53C92.08 55.63 94.69 53.38 96.94 50.81C99.2 48.24 100.97 45.21 102.24 41.72C102.81 40.12 103.22 38.67 103.47 37.37C103.74 36.07 103.87 34.88 103.87 33.81C103.87 31.27 103.26 29.36 102.05 28.09C100.84 26.82 99.29 26.18 97.38 26.18C95.66 26.18 93.75 26.71 91.66 27.76C89.56 28.8 87.47 30.37 85.38 32.46C86.01 36.66 86.73 40.86 87.52 45.04C88.31 49.23 88.84 53.39 89.1 57.53ZM70.8 64.18C71.88 64.18 72.94 64.11 73.98 63.95C75.04 63.8 75.97 63.63 76.8 63.44C79.98 62.66 82.93 61.52 85.66 60C85.6 55.81 85.32 51.61 84.84 47.39C84.38 43.16 83.89 38.92 83.38 34.67C82.68 35.87 81.7 37.25 80.42 38.81C79.15 40.36 77.66 41.85 75.94 43.28C74.23 44.7 72.38 45.9 70.38 46.86C68.38 47.8 66.3 48.28 64.14 48.28C62.87 48.28 61.6 48.09 60.33 47.72C60.07 48.6 59.83 49.59 59.61 50.67C59.39 51.74 59.28 52.82 59.28 53.9C59.28 55.24 59.47 56.57 59.84 57.9C60.74 60.32 62.25 61.97 64.38 62.86C66.5 63.74 68.64 64.18 70.8 64.18Z" fill="#FFA55C" fill-opacity="1.000000" fill-rule="nonzero"/>
	<path id="Форма 7" d="M6.8 56.24C5.98 56.24 5.26 55.77 4.65 54.82C4.04 53.87 3.6 52.35 3.35 50.24C3.32 50.07 3.3 49.87 3.3 49.64C3.3 49.4 3.3 49.15 3.3 48.89C3.3 47.84 3.36 46.5 3.49 44.88C3.62 43.27 3.78 41.48 3.97 39.54C4.16 37.59 4.35 35.58 4.52 33.52C4.7 31.45 4.85 29.42 4.98 27.43C5.11 25.45 5.17 23.64 5.17 22.02C5.17 20 5.05 18.36 4.79 17.12C4.53 15.87 4.07 15.25 3.39 15.25C2.98 15.25 2.57 15.48 2.17 15.95C1.78 16.41 1.42 16.92 1.12 17.48C0.82 18.04 0.57 18.48 0.39 18.82C0.22 19.16 0.12 19.21 0.09 18.98C0.06 18.86 0.03 18.74 0.02 18.63C0 18.52 0 18.39 0 18.27C0 17.66 0.14 17.02 0.42 16.35C0.71 15.68 1.1 15.11 1.61 14.65C2.13 14.18 2.71 13.95 3.35 13.95C3.48 13.95 3.59 13.95 3.69 13.97C3.78 13.98 3.88 14.01 3.98 14.05C5.22 14.37 6.07 15.39 6.51 17.12C6.96 18.85 7.19 20.94 7.19 23.4C7.19 25.26 7.1 27.23 6.92 29.31C6.75 31.39 6.56 33.48 6.35 35.58C6.14 37.67 5.95 39.66 5.77 41.55C5.6 43.44 5.51 45.1 5.51 46.55C5.51 46.96 5.52 47.35 5.54 47.72C5.55 48.09 5.58 48.43 5.61 48.75C5.87 50.77 6.22 52.18 6.66 52.99C7.11 53.81 7.62 54.22 8.2 54.22C8.84 54.22 9.5 53.87 10.19 53.17C10.88 52.46 11.56 51.59 12.23 50.53C12.9 49.47 13.51 48.41 14.06 47.36C14.79 45.98 15.46 44.37 16.07 42.52C16.68 40.66 17.23 38.77 17.73 36.84C18.23 34.92 18.62 33.16 18.9 31.57C18.58 31.02 18.39 30.46 18.32 29.89C18.26 29.32 18.23 28.58 18.23 27.68C18.23 26.72 18.41 25.97 18.76 25.43C19.11 24.88 19.48 24.61 19.86 24.61C20.44 24.61 20.82 25.09 21.02 26.05C21.37 27.64 21.72 29.33 22.07 31.11C22.42 32.89 22.82 34.62 23.25 36.32C23.67 38.01 24.18 39.58 24.76 41.03C25.94 43.87 27.03 45.91 28.03 47.14C29.02 48.37 29.93 48.98 30.76 48.98C31.62 48.98 32.39 48.43 33.04 47.33C33.7 46.23 34.25 44.78 34.69 42.97C35.14 41.16 35.48 39.19 35.7 37.07C35.93 34.93 36.04 32.84 36.04 30.8C36.04 29.1 35.97 27.52 35.82 26.05C35.68 24.57 35.43 23.37 35.08 22.44C34.95 22.06 34.85 21.66 34.79 21.25C34.73 20.83 34.69 20.45 34.69 20.1C34.69 19.64 34.75 19.26 34.86 18.94C34.98 18.62 35.14 18.46 35.36 18.46C35.62 18.46 35.88 18.65 36.14 19.04C36.49 19.49 36.82 20.11 37.12 20.89C37.42 21.68 37.69 22.35 37.91 22.92C38.16 23.56 38.5 24.34 38.91 25.25C39.33 26.17 39.78 27 40.24 27.75C40.7 28.5 41.16 28.96 41.61 29.12C41.67 29.15 41.7 29.21 41.7 29.31C41.7 29.5 41.56 29.66 41.27 29.79C40.98 29.91 40.77 29.96 40.65 29.93C39.91 29.58 39.3 29.2 38.8 28.8C38.3 28.41 37.74 27.66 37.1 26.58C37.13 27.15 37.14 27.73 37.14 28.32C37.14 28.92 37.14 29.5 37.14 30.08C37.14 31.75 37.08 33.41 36.97 35.07C36.86 36.74 36.64 38.42 36.32 40.11C35.62 43.79 34.73 46.42 33.66 47.99C32.59 49.55 31.46 50.33 30.28 50.33C29.32 50.33 28.36 49.91 27.42 49.07C26.48 48.21 25.61 47.09 24.8 45.68C24.01 44.27 23.32 42.7 22.74 40.97C22.23 39.3 21.8 37.78 21.44 36.39C21.09 35 20.82 33.77 20.63 32.72C20.12 35.02 19.45 37.31 18.63 39.59C17.82 41.85 16.91 43.98 15.92 45.98C14.93 47.98 13.9 49.75 12.83 51.29C11.76 52.83 10.7 54.04 9.66 54.91C8.62 55.8 7.67 56.24 6.8 56.24Z" fill="#FFF9F4" fill-opacity="1.000000" fill-rule="nonzero"/>
	<path id="Форма 7" d="M41.27 50.38C40.69 50.38 40.28 50.13 40.02 49.64C39.77 49.14 39.64 48.55 39.64 47.88C39.64 47.02 39.79 46.02 40.09 44.87C40.39 43.71 40.8 42.52 41.31 41.29C41.82 40.05 42.41 38.91 43.06 37.87C43.72 36.84 44.42 35.99 45.15 35.33C45.89 34.68 46.62 34.35 47.32 34.35C47.96 34.35 48.51 34.63 48.97 35.19C49.44 35.75 49.67 36.39 49.67 37.09C49.67 37.5 49.61 37.85 49.47 38.12C49.35 38.39 49.21 38.53 49.04 38.53C48.92 38.53 48.81 38.43 48.71 38.24C48.39 37.5 48.05 36.98 47.68 36.66C47.31 36.34 46.94 36.18 46.55 36.18C45.9 36.18 45.27 36.54 44.65 37.25C44.03 37.97 43.53 38.8 43.15 39.73C42.83 40.43 42.53 41.27 42.26 42.25C41.98 43.22 41.76 44.18 41.58 45.13C41.4 46.07 41.32 46.85 41.32 47.45C41.32 48.54 41.57 49.09 42.08 49.09C42.72 49.09 43.54 48.38 44.53 46.97C45.27 45.95 45.94 44.76 46.52 43.42C47.12 42.07 47.62 40.91 48.03 39.91C48.2 39.59 48.37 39.39 48.56 39.29C48.76 39.2 48.94 39.15 49.1 39.15C49.48 39.15 49.73 39.31 49.84 39.63C49.95 39.95 50 40.22 50 40.44C50 41.28 49.92 42.02 49.76 42.68C49.6 43.34 49.52 44.13 49.52 45.06C49.52 45.73 49.58 46.35 49.69 46.91C49.8 47.46 50.01 47.74 50.3 47.74C50.65 47.74 51.1 47.29 51.64 46.39C51.77 46.14 51.96 46.01 52.22 46.01C52.51 46.01 52.65 46.15 52.65 46.44C52.65 46.86 52.36 47.3 51.78 47.77C51.21 48.23 50.63 48.46 50.05 48.46C49.28 48.46 48.74 48.14 48.42 47.5C47.88 46.44 47.61 45.49 47.61 44.65C47.61 43.8 47.59 43.21 47.55 42.89C47.4 43.27 47.09 43.87 46.64 44.7C46.19 45.51 45.67 46.36 45.06 47.24C44.46 48.12 43.82 48.87 43.15 49.48C42.47 50.08 41.85 50.38 41.27 50.38Z" fill="#FFF9F4" fill-opacity="1.000000" fill-rule="nonzero"/>
	<path id="Форма 7" d="M50.01 57.73C49.68 57.73 49.42 57.63 49.22 57.43C49.01 57.25 48.98 57.02 49.14 56.77C49.59 56.09 50.02 55.14 50.42 53.91C50.81 52.68 51.17 51.39 51.47 50.05C51.77 48.71 52.03 47.48 52.23 46.38C52.44 45.27 52.6 44.5 52.69 44.05C52.12 43.5 51.83 42.89 51.83 42.22C51.83 41.71 51.95 41.27 52.18 40.92C52.43 40.57 52.61 40.41 52.75 40.44C52.81 40.44 52.9 40.47 53.01 40.52C53.11 40.57 53.17 40.62 53.17 40.69C53.36 39.18 53.52 37.68 53.65 36.2C53.78 34.71 53.85 33.34 53.85 32.1C53.85 31.07 53.8 30.16 53.7 29.37C53.6 28.56 53.46 27.92 53.27 27.43C53.08 26.96 52.98 26.59 52.98 26.33C52.98 25.98 53.08 25.8 53.27 25.8C53.49 25.8 53.67 25.95 53.8 26.24C54.15 26.94 54.42 28.05 54.59 29.55C54.77 31.05 54.86 32.77 54.86 34.69C54.86 36 54.82 37.39 54.75 38.85C54.69 40.3 54.58 41.75 54.42 43.18C55 42.67 55.59 42.16 56.19 41.67C56.8 41.17 57.33 40.65 57.79 40.11L57.79 40.07C57.79 40 57.76 39.93 57.7 39.87C57.66 39.8 57.63 39.71 57.63 39.59C57.63 39.36 57.79 39.09 58.11 38.77C58.43 38.45 58.86 37.99 59.38 37.39C59.91 36.8 60.47 36.26 61.04 35.77C61.62 35.27 62.15 35.04 62.63 35.07C63.01 35.07 63.2 35.2 63.2 35.45C63.2 35.74 62.93 36.17 62.38 36.75C61.84 37.33 61.2 37.94 60.45 38.58C59.7 39.22 59.01 39.8 58.38 40.34C57.76 40.86 57.35 41.21 57.15 41.4L55.34 43.42L54.38 44.43C54.79 45.48 55.27 46.52 55.81 47.55C56.35 48.58 56.97 49.43 57.66 50.1C58.35 50.77 59.06 51.11 59.8 51.11C60.57 51.11 61.35 50.64 62.15 49.71C62.69 49.04 63.16 48.29 63.54 47.46C63.92 46.62 64.24 46 64.5 45.59C64.67 45.27 64.83 45.05 64.98 44.94C65.15 44.82 65.27 44.77 65.37 44.77C65.59 44.77 65.67 44.93 65.6 45.25C65.48 45.66 65.26 46.19 64.93 46.83C64.61 47.47 64.3 48.07 64 48.63C63.69 49.19 63.46 49.58 63.31 49.8C62.7 50.7 62.09 51.36 61.48 51.77C60.87 52.19 60.27 52.39 59.7 52.39C58.96 52.39 58.24 52.12 57.54 51.57C56.84 51.04 56.19 50.34 55.6 49.48C55 48.61 54.47 47.7 53.99 46.73C53.64 49.16 53.2 51.35 52.69 53.29C52.18 55.22 51.62 56.56 51.01 57.29C50.72 57.58 50.39 57.73 50.01 57.73Z" fill="#FFF9F4" fill-opacity="1.000000" fill-rule="nonzero"/>
	<path id="Форма 7" d="M68.92 51.39C67.77 51.39 66.77 50.71 65.92 49.35C65.07 47.99 64.64 45.84 64.64 42.89C64.64 40.97 64.88 39.43 65.36 38.26C65.84 37.09 66.43 36.23 67.14 35.7C67.85 35.15 68.52 34.87 69.16 34.87C69.8 34.87 70.34 35.09 70.78 35.53C71.23 35.96 71.46 36.57 71.46 37.37C71.46 38.14 71.23 38.96 70.78 39.81C70.34 40.65 69.8 41.42 69.18 42.11C68.56 42.79 67.94 43.25 67.34 43.46C67.2 43.54 67.04 43.57 66.86 43.57C66.73 43.57 66.67 43.52 66.67 43.42C66.67 43.17 66.92 42.88 67.43 42.56C68.07 42.11 68.68 41.43 69.25 40.52C69.82 39.61 70.11 38.8 70.11 38.1C70.11 37.68 70.02 37.35 69.82 37.11C69.63 36.87 69.41 36.75 69.16 36.75C68.68 36.75 68.16 37.12 67.59 37.87C67.04 38.62 66.63 39.91 66.37 41.74C66.31 42.25 66.25 42.74 66.2 43.21C66.15 43.67 66.13 44.12 66.13 44.58C66.13 46.37 66.4 47.77 66.95 48.77C67.5 49.78 68.21 50.29 69.11 50.29C69.88 50.29 70.74 49.83 71.69 48.93C72.66 48.01 73.6 46.58 74.53 44.62C74.76 44.11 75.02 43.85 75.3 43.85C75.49 43.85 75.59 43.98 75.59 44.24C75.59 44.46 75.52 44.7 75.4 44.95C74.57 47.01 73.56 48.59 72.37 49.71C71.19 50.83 70.03 51.39 68.92 51.39Z" fill="#FFF9F4" fill-opacity="1.000000" fill-rule="nonzero"/>
	<path id="Форма 7" d="M100.27 68.77C98.79 68.77 97.37 68.16 96.01 66.94C94.65 65.73 93.52 63.97 92.6 61.66C91.69 59.36 91.16 56.57 91 53.31C90 53.4 89.09 53.45 88.27 53.45C86.41 53.45 85.05 53.21 84.2 52.72C83.36 52.25 82.93 51.62 82.93 50.86C82.93 50.09 83.3 49.25 84.03 48.32C84.77 47.39 85.79 46.45 87.11 45.52C88.42 44.57 89.96 43.71 91.72 42.94C92.32 39.68 93.3 36.16 94.66 32.37C96.03 28.57 97.87 24.54 100.17 20.29C100.39 19.87 100.73 19.66 101.18 19.66C101.46 19.66 101.71 19.76 101.94 19.96C102.17 20.14 102.28 20.4 102.28 20.72C102.28 20.87 102.23 21.08 102.13 21.34C100.08 25.47 98.38 29.26 97.02 32.7C95.66 36.13 94.6 39.28 93.83 42.13C95.27 41.58 96.8 41.13 98.44 40.78C100.07 40.43 101.73 40.22 103.43 40.16C103.88 40.16 104.1 40.22 104.1 40.35C104.1 40.48 103.95 40.6 103.64 40.71C103.34 40.82 102.84 40.89 102.13 40.92C100.57 41.02 99.07 41.24 97.64 41.58C96.22 41.91 94.88 42.32 93.63 42.8C93.16 44.66 92.79 46.38 92.53 47.96C92.28 49.54 92.12 51 92.05 52.35C95.35 51.64 98.35 50.61 101.05 49.25C103.75 47.89 106.14 46.32 108.22 44.53C110.31 42.73 112.05 40.87 113.46 38.95C114.36 37.74 115.01 36.66 115.41 35.72C115.8 34.77 116 33.95 116 33.25C116 32.22 115.68 31.41 115.04 30.82C114.4 30.23 113.55 29.8 112.5 29.53C111.45 29.26 110.29 29.12 109.04 29.12C107.73 29.12 106.4 29.24 105.06 29.48C103.71 29.72 102.5 30.04 101.41 30.46C101.16 30.53 100.98 30.56 100.89 30.56C100.47 30.56 100.27 30.42 100.27 30.13C100.27 29.84 100.44 29.61 100.79 29.45C104.73 27.21 107.53 25.19 109.2 23.37C110.86 21.54 111.69 20 111.69 18.75C111.69 17.66 111.19 16.82 110.18 16.23C109.17 15.64 107.85 15.34 106.22 15.34C104.94 15.34 103.5 15.55 101.89 15.97C100.29 16.39 98.64 17.05 96.95 17.98C95.54 18.75 94.27 19.66 93.13 20.7C92 21.73 91.03 22.81 90.25 23.92C89.46 25.02 88.88 26.06 88.5 27.04C88.12 28 87.97 28.82 88.07 29.5C88.07 29.57 88.07 29.64 88.09 29.72C88.11 29.8 88.11 29.87 88.11 29.93C88.11 30.73 87.87 31.14 87.4 31.14C87.17 31.14 86.94 30.98 86.69 30.66C86.46 30.34 86.34 29.86 86.34 29.21C86.34 28.25 86.64 27.23 87.22 26.14C87.82 25.05 88.62 23.95 89.62 22.85C90.63 21.75 91.76 20.71 93.01 19.73C94.26 18.76 95.56 17.92 96.9 17.21C98.63 16.29 100.33 15.6 102.01 15.15C103.69 14.7 105.24 14.47 106.65 14.47C108.6 14.47 110.18 14.86 111.4 15.63C112.62 16.4 113.23 17.47 113.23 18.84C113.23 20.12 112.6 21.61 111.35 23.31C110.1 25 108 26.87 105.06 28.92C106.05 28.77 106.98 28.65 107.84 28.57C108.7 28.48 109.51 28.44 110.25 28.44C113 28.44 114.99 28.9 116.21 29.81C117.45 30.73 118.07 31.9 118.07 33.34C118.07 34.39 117.77 35.54 117.18 36.77C116.59 38.01 115.77 39.28 114.71 40.59C113.18 42.48 111.25 44.3 108.93 46.07C106.61 47.82 104.01 49.34 101.14 50.62C98.28 51.91 95.24 52.77 92 53.21C91.94 56.06 92.21 58.41 92.8 60.27C93.39 62.13 94.15 63.58 95.07 64.62C96 65.66 96.93 66.39 97.86 66.82C98.79 67.25 99.56 67.46 100.17 67.46C100.62 67.46 100.92 67.39 101.07 67.23C101.21 67.07 101.4 66.98 101.66 66.98C101.91 66.98 102.15 67.08 102.38 67.28C102.6 67.47 102.71 67.68 102.71 67.9C102.71 68.09 102.6 68.24 102.38 68.33C101.67 68.62 100.97 68.77 100.27 68.77ZM88.45 52.83C88.8 52.83 89.19 52.8 89.6 52.76C90.02 52.71 90.47 52.66 90.95 52.59C90.92 51.25 90.95 49.84 91.04 48.37C91.14 46.9 91.32 45.36 91.57 43.76C89.52 44.81 87.91 45.99 86.72 47.29C85.54 48.58 84.95 49.73 84.95 50.72C84.95 51.33 85.24 51.83 85.82 52.23C86.39 52.63 87.27 52.83 88.45 52.83Z" fill="#FFF9F4" fill-opacity="1.000000" fill-rule="nonzero"/>
	<path id="Форма 7" d="M120.28 50.38C119.7 50.38 119.28 50.13 119.03 49.64C118.78 49.14 118.65 48.55 118.65 47.88C118.65 47.02 118.8 46.02 119.1 44.87C119.4 43.71 119.81 42.52 120.32 41.29C120.83 40.05 121.42 38.91 122.07 37.87C122.73 36.84 123.42 35.99 124.16 35.33C124.9 34.68 125.62 34.35 126.33 34.35C126.97 34.35 127.52 34.63 127.98 35.19C128.45 35.75 128.68 36.39 128.68 37.09C128.68 37.5 128.62 37.85 128.48 38.12C128.36 38.39 128.21 38.53 128.05 38.53C127.92 38.53 127.82 38.43 127.72 38.24C127.4 37.5 127.06 36.98 126.69 36.66C126.32 36.34 125.94 36.18 125.55 36.18C124.91 36.18 124.28 36.54 123.66 37.25C123.04 37.97 122.54 38.8 122.16 39.73C121.83 40.43 121.54 41.27 121.26 42.25C120.99 43.22 120.76 44.18 120.58 45.13C120.41 46.07 120.33 46.85 120.33 47.45C120.33 48.54 120.58 49.09 121.09 49.09C121.73 49.09 122.55 48.38 123.54 46.97C124.28 45.95 124.94 44.76 125.53 43.42C126.12 42.07 126.63 40.91 127.04 39.91C127.21 39.59 127.38 39.39 127.57 39.29C127.76 39.2 127.94 39.15 128.11 39.15C128.49 39.15 128.74 39.31 128.85 39.63C128.96 39.95 129.01 40.22 129.01 40.44C129.01 41.28 128.93 42.02 128.76 42.68C128.61 43.34 128.53 44.13 128.53 45.06C128.53 45.73 128.58 46.35 128.69 46.91C128.81 47.46 129.01 47.74 129.3 47.74C129.66 47.74 130.1 47.29 130.65 46.39C130.78 46.14 130.97 46.01 131.23 46.01C131.51 46.01 131.66 46.15 131.66 46.44C131.66 46.86 131.37 47.3 130.79 47.77C130.21 48.23 129.64 48.46 129.06 48.46C128.29 48.46 127.75 48.14 127.43 47.5C126.89 46.44 126.62 45.49 126.62 44.65C126.62 43.8 126.6 43.21 126.56 42.89C126.41 43.27 126.1 43.87 125.65 44.7C125.2 45.51 124.67 46.36 124.07 47.24C123.46 48.12 122.83 48.87 122.16 49.48C121.48 50.08 120.86 50.38 120.28 50.38Z" fill="#FFF9F4" fill-opacity="1.000000" fill-rule="nonzero"/>
	<path id="Форма 7" d="M129.01 57.73C128.69 57.73 128.43 57.63 128.23 57.43C128.02 57.25 127.99 57.02 128.15 56.77C128.6 56.09 129.03 55.14 129.42 53.91C129.82 52.68 130.17 51.39 130.48 50.05C130.78 48.71 131.04 47.48 131.24 46.38C131.45 45.27 131.6 44.5 131.7 44.05C131.13 43.5 130.84 42.89 130.84 42.22C130.84 41.71 130.96 41.27 131.19 40.92C131.44 40.57 131.62 40.41 131.75 40.44C131.82 40.44 131.9 40.47 132.01 40.52C132.12 40.57 132.18 40.62 132.18 40.69C132.37 39.18 132.53 37.68 132.66 36.2C132.79 34.71 132.86 33.34 132.86 32.1C132.86 31.07 132.81 30.16 132.7 29.37C132.61 28.56 132.47 27.92 132.28 27.43C132.09 26.96 131.99 26.59 131.99 26.33C131.99 25.98 132.09 25.8 132.28 25.8C132.5 25.8 132.68 25.95 132.81 26.24C133.16 26.94 133.42 28.05 133.6 29.55C133.78 31.05 133.87 32.77 133.87 34.69C133.87 36 133.83 37.39 133.76 38.85C133.7 40.3 133.59 41.75 133.43 43.18C134.01 42.67 134.6 42.16 135.2 41.67C135.81 41.17 136.34 40.65 136.79 40.11L136.79 40.07C136.79 40 136.77 39.93 136.71 39.87C136.67 39.8 136.64 39.71 136.64 39.59C136.64 39.36 136.8 39.09 137.12 38.77C137.44 38.45 137.87 37.99 138.39 37.39C138.92 36.8 139.47 36.26 140.05 35.77C140.63 35.27 141.16 35.04 141.63 35.07C142.02 35.07 142.21 35.2 142.21 35.45C142.21 35.74 141.94 36.17 141.39 36.75C140.85 37.33 140.2 37.94 139.45 38.58C138.7 39.22 138.02 39.8 137.39 40.34C136.77 40.86 136.36 41.21 136.16 41.4L134.35 43.42L133.38 44.43C133.8 45.48 134.28 46.52 134.81 47.55C135.36 48.58 135.98 49.43 136.67 50.1C137.35 50.77 138.07 51.11 138.81 51.11C139.58 51.11 140.36 50.64 141.15 49.71C141.7 49.04 142.17 48.29 142.55 47.46C142.93 46.62 143.25 46 143.51 45.59C143.67 45.27 143.83 45.05 143.99 44.94C144.15 44.82 144.28 44.77 144.38 44.77C144.6 44.77 144.67 44.93 144.61 45.25C144.49 45.66 144.26 46.19 143.94 46.83C143.62 47.47 143.31 48.07 143 48.63C142.7 49.19 142.47 49.58 142.31 49.8C141.7 50.7 141.1 51.36 140.49 51.77C139.88 52.19 139.28 52.39 138.7 52.39C137.97 52.39 137.25 52.12 136.55 51.57C135.85 51.04 135.2 50.34 134.6 49.48C134.01 48.61 133.47 47.7 133 46.73C132.65 49.16 132.21 51.35 131.7 53.29C131.19 55.22 130.63 56.56 130.02 57.29C129.73 57.58 129.4 57.73 129.01 57.73Z" fill="#FFF9F4" fill-opacity="1.000000" fill-rule="nonzero"/>
	<path id="Форма 7" d="M147.93 51.39C146.78 51.39 145.78 50.71 144.93 49.35C144.07 47.99 143.65 45.84 143.65 42.89C143.65 40.97 143.89 39.43 144.36 38.26C144.85 37.09 145.44 36.23 146.14 35.7C146.86 35.15 147.53 34.87 148.17 34.87C148.8 34.87 149.34 35.09 149.79 35.53C150.24 35.96 150.47 36.57 150.47 37.37C150.47 38.14 150.24 38.96 149.79 39.81C149.34 40.65 148.81 41.42 148.18 42.11C147.57 42.79 146.95 43.25 146.34 43.46C146.21 43.54 146.05 43.57 145.86 43.57C145.74 43.57 145.68 43.52 145.68 43.42C145.68 43.17 145.93 42.88 146.44 42.56C147.08 42.11 147.68 41.43 148.25 40.52C148.83 39.61 149.12 38.8 149.12 38.1C149.12 37.68 149.02 37.35 148.83 37.11C148.64 36.87 148.42 36.75 148.17 36.75C147.69 36.75 147.16 37.12 146.6 37.87C146.05 38.62 145.64 39.91 145.38 41.74C145.32 42.25 145.26 42.74 145.21 43.21C145.16 43.67 145.14 44.12 145.14 44.58C145.14 46.37 145.41 47.77 145.96 48.77C146.5 49.78 147.22 50.29 148.11 50.29C148.89 50.29 149.75 49.83 150.7 48.93C151.66 48.01 152.61 46.58 153.54 44.62C153.77 44.11 154.02 43.85 154.31 43.85C154.5 43.85 154.59 43.98 154.59 44.24C154.59 44.46 154.53 44.7 154.41 44.95C153.58 47.01 152.57 48.59 151.38 49.71C150.2 50.83 149.04 51.39 147.93 51.39Z" fill="#FFF9F4" fill-opacity="1.000000" fill-rule="nonzero"/>
</svg>
